<svg width="11" height="16" viewBox="0 0 11 16" fill="none" xmlns="http://www.w3.org/2000/svg">
<path d="M7.06225 6.43426L3.93726 9.81968M3.93726 6.43426L7.06225 9.81968M10.4998 8.80406C10.4998 12.1895 8.31225 13.8822 5.71225 14.864C5.57611 14.9139 5.42822 14.9115 5.2935 14.8572C2.68726 13.8822 0.499756 12.1895 0.499756 8.80406V4.06447C0.499756 3.8849 0.565604 3.71268 0.682814 3.5857C0.800024 3.45872 0.958995 3.38739 1.12476 3.38739C2.37476 3.38739 3.93725 2.57489 5.02475 1.54572C5.15716 1.42317 5.3256 1.35583 5.49975 1.35583C5.67391 1.35583 5.84235 1.42317 5.97476 1.54572C7.0685 2.58166 8.62475 3.38739 9.87475 3.38739C10.0405 3.38739 10.1995 3.45872 10.3167 3.5857C10.4339 3.71268 10.4998 3.8849 10.4998 4.06447V8.80406Z" stroke="currentColor" stroke-width="0.739568" stroke-linecap="round" stroke-linejoin="round"/>
</svg>
